<svg width="18" height="17" viewBox="0 0 18 17" fill="none" xmlns="http://www.w3.org/2000/svg">
<path d="M0.636719 7.36126C0.636719 3.7312 3.58019 0.791016 7.21107 0.791016H10.7968C14.4843 0.791016 17.473 3.78048 17.473 7.46803C17.473 9.89902 16.1532 12.1329 14.0269 13.3073L7.41229 16.9703V13.9397H7.35726C3.66971 14.0219 0.636719 11.057 0.636719 7.36126ZM7.21107 2.43358C4.48688 2.43358 2.27928 4.64282 2.27928 7.36126C2.27928 10.129 4.55423 12.3547 7.3203 12.2972L7.60857 12.2889H9.05485V14.1779L13.2327 11.8701C14.835 10.9831 15.8304 9.29949 15.8304 7.46803C15.8304 4.68389 13.5768 2.43358 10.7968 2.43358H7.21107Z" fill="#6D6D6D"/>
</svg>
