<svg width="16" height="15" viewBox="0 0 16 15" fill="none" xmlns="http://www.w3.org/2000/svg">
<path d="M13.8941 2.2225C13.5536 1.88184 13.1493 1.6116 12.7043 1.42722C12.2593 1.24285 11.7824 1.14795 11.3007 1.14795C10.8191 1.14795 10.3421 1.24285 9.89716 1.42722C9.45219 1.6116 9.0479 1.88184 8.7074 2.2225L8.00073 2.92917L7.29406 2.2225C6.60627 1.5347 5.67342 1.14831 4.70073 1.14831C3.72804 1.14831 2.79519 1.5347 2.1074 2.2225C1.4196 2.91029 1.0332 3.84314 1.0332 4.81583C1.0332 5.78852 1.4196 6.72137 2.1074 7.40917L2.81406 8.11583L8.00073 13.3025L13.1874 8.11583L13.8941 7.40917C14.2347 7.06866 14.505 6.66438 14.6893 6.2194C14.8737 5.77443 14.9686 5.29749 14.9686 4.81583C14.9686 4.33417 14.8737 3.85724 14.6893 3.41226C14.505 2.96729 14.2347 2.563 13.8941 2.2225V2.2225Z" stroke="#6D6D6D" stroke-width="1.5" stroke-linecap="round" stroke-linejoin="round"/>
</svg>
